<mxfile host="app.diagrams.net" modified="2024-01-25T15:50:31.701Z" agent="Mozilla/5.0 (X11; Linux x86_64; rv:109.0) Gecko/20100101 Firefox/114.0" version="22.1.19" etag="OnGcKbVL3wMzorF6G3Sk" type="github">
  <diagram name="PÃ¡gina-1" id="cBvaw7sfm7jpnItbIcRA">
    <mxGraphModel>
      <root>
        <mxCell id="0" />
        <mxCell id="1" parent="0" />
      </root>
    </mxGraphModel>
  </diagram>
</mxfile>
